<svg id="Ebene_1" data-name="Ebene 1" xmlns="http://www.w3.org/2000/svg" viewBox="0 0 167.94 65.51"><defs><style>.cls-1{fill:#cc1132;}.cls-2{fill:white;}</style></defs><title>2015_10_05_THB_FB-IM_Logo_RGB</title><path class="cls-1" d="M21.19,35.77h0C14.13,32.43,7.06,39.32,0,35.84v5.84c7.11,3.5,14.22-3.51,21.33,0h0c7.06,3.33,14.12-3.55,21.19-.07V35.77c-7.11-3.51-14.22,3.51-21.33,0"/><rect class="cls-1" y="0.17" width="5.84" height="5.84"/><rect class="cls-1" y="11.8" width="42.52" height="5.85"/><rect class="cls-1" y="23.57" width="42.52" height="5.84"/><rect class="cls-1" x="12.23" y="0.17" width="5.84" height="5.84"/><rect class="cls-1" x="24.45" y="0.17" width="5.84" height="5.84"/><rect class="cls-1" x="36.68" y="0.17" width="5.84" height="5.84"/><path class="cls-1" d="M158,65.39h1.47V62.5a0.9,0.9,0,0,1,.92-1.05,0.88,0.88,0,0,1,.89,1.05v2.9h1.47V62A1.7,1.7,0,0,0,161,60.1a1.83,1.83,0,0,0-1.52.83V60.2H158v5.19Zm-4.83-3a1.16,1.16,0,0,1,1.12-1.11,1.11,1.11,0,0,1,1.09,1.11h-2.22Zm1.27,3.12a2.6,2.6,0,0,0,2.12-1l-0.84-.75a1.71,1.71,0,0,1-1.26.53,1.2,1.2,0,0,1-1.27-1h3.61c0-.13,0-0.27,0-0.39a2.53,2.53,0,0,0-2.53-2.82,2.59,2.59,0,0,0-2.57,2.7v0a2.6,2.6,0,0,0,2.71,2.68M149,65.39h1.47V60.2H149v5.19Zm0-5.77h1.55V58.32H149v1.31Zm-4.2,4.61a1.32,1.32,0,0,1-1.27-1.43v0a1.27,1.27,0,1,1,2.53,0v0a1.31,1.31,0,0,1-1.26,1.43m-0.38,1.25a1.9,1.9,0,0,0,1.62-.84v0.75h1.47V58.32H146v2.56a2,2,0,0,0-1.62-.78,2.44,2.44,0,0,0-2.36,2.69v0a2.44,2.44,0,0,0,2.36,2.68m-6.88-3.1a1.16,1.16,0,0,1,1.12-1.11,1.11,1.11,0,0,1,1.1,1.11h-2.22Zm1.27,3.12a2.6,2.6,0,0,0,2.12-1l-0.84-.75a1.7,1.7,0,0,1-1.26.53,1.2,1.2,0,0,1-1.27-1h3.61c0-.13,0-0.27,0-0.39a2.53,2.53,0,0,0-2.53-2.82,2.59,2.59,0,0,0-2.57,2.7v0a2.6,2.6,0,0,0,2.71,2.68m-10.68-.12h1.46V61l1.89,2.87h0l1.91-2.9v4.43h1.48V58.61h-1.61l-1.78,2.87-1.78-2.87h-1.61v6.78Zm-7.38-1.15a1.32,1.32,0,0,1-1.27-1.43v0a1.27,1.27,0,1,1,2.53,0v0a1.31,1.31,0,0,1-1.26,1.43m-0.38,1.25a1.91,1.91,0,0,0,1.62-.84v0.75h1.47V58.32H122v2.56a2,2,0,0,0-1.62-.78A2.43,2.43,0,0,0,118,62.79v0a2.44,2.44,0,0,0,2.37,2.68m-8.17-.1h1.47V62.5a0.9,0.9,0,0,1,.92-1.05,0.88,0.88,0,0,1,.89,1.05v2.9H117V62a1.7,1.7,0,0,0-1.76-1.93,1.84,1.84,0,0,0-1.52.83V60.2h-1.47v5.19Zm-4.41.1a1.84,1.84,0,0,0,1.52-.83v0.74h1.47V60.2h-1.47v2.9a0.91,0.91,0,0,1-.92,1.06,0.89,0.89,0,0,1-.89-1.06V60.2H106v3.36a1.7,1.7,0,0,0,1.76,1.93m-10.64-.1h1.47V63.82l0.52-.55,1.33,2.13h1.71l-2-3.15,2-2h-1.76l-1.72,1.89V58.32H97.16v7.07Zm-3,0h1.47V60.2H94.19v5.19Zm0-5.77H95.7V58.32H94.15v1.31Zm-2.42,5.85a2.18,2.18,0,0,0,1.16-.3V64a1.52,1.52,0,0,1-.73.19,0.43,0.43,0,0,1-.47-0.51V61.46h1.22V60.2H91.69V58.87H90.22V60.2H89.6v1.26h0.62v2.46a1.33,1.33,0,0,0,1.51,1.56m-5.63-1a0.69,0.69,0,0,1-.8-0.63v0a0.82,0.82,0,0,1,1-.72,2.27,2.27,0,0,1,.94.19v0.26a1,1,0,0,1-1.15.91m-0.45,1a2,2,0,0,0,1.57-.66v0.56h1.42v-3a2.26,2.26,0,0,0-.56-1.66,2.39,2.39,0,0,0-1.75-.58,4.57,4.57,0,0,0-2,.42l0.37,1.12a3.84,3.84,0,0,1,1.44-.28,0.93,0.93,0,0,1,1.11.95v0.09A3.66,3.66,0,0,0,86,62.23c-1.23,0-2.09.52-2.09,1.66v0a1.61,1.61,0,0,0,1.78,1.59m-10.78-.1h1.47V62.5a0.89,0.89,0,0,1,.89-1.05,0.87,0.87,0,0,1,.86,1.05v2.9h1.47V62.5a0.89,0.89,0,0,1,.89-1.05,0.87,0.87,0,0,1,.86,1.05v2.9h1.47V62A1.66,1.66,0,0,0,81,60.1a2.14,2.14,0,0,0-1.71.82,1.56,1.56,0,0,0-1.46-.82,1.86,1.86,0,0,0-1.53.83V60.2H74.87v5.19Zm-4.12,0h1.47V63.48c0-1.24.6-1.83,1.58-1.83h0.08V60.1a1.61,1.61,0,0,0-1.66,1.14v-1H70.75v5.19Zm-3.87-1.15a1.38,1.38,0,0,1-1.37-1.43v0a1.33,1.33,0,0,1,1.35-1.41,1.38,1.38,0,0,1,1.37,1.43v0a1.33,1.33,0,0,1-1.35,1.41m0,1.27a2.73,2.73,0,0,0,2.82-2.7v0a2.7,2.7,0,0,0-2.8-2.69,2.73,2.73,0,0,0-2.82,2.7v0a2.7,2.7,0,0,0,2.8,2.68m-6-.12h1.47V61.46h1.17v-1.2H62.32v-0.2a0.49,0.49,0,0,1,.53-0.56,1.85,1.85,0,0,1,.67.13V58.4a3.28,3.28,0,0,0-1-.14,1.62,1.62,0,0,0-1.19.41,1.71,1.71,0,0,0-.42,1.26v0.33H60.26v1.21h0.61v3.93Zm-6.41,0h1.47V62.5a0.9,0.9,0,0,1,.92-1.05,0.88,0.88,0,0,1,.89,1.05v2.9h1.47V62a1.7,1.7,0,0,0-1.76-1.93,1.84,1.84,0,0,0-1.52.83V60.2H54.46v5.19Zm-3.09,0h1.49V58.61H51.36v6.78Z"/><path class="cls-1" d="M106.52,54H108v-2.9a0.9,0.9,0,0,1,.92-1.06,0.88,0.88,0,0,1,.89,1.06V54h1.47V50.64a1.71,1.71,0,0,0-1.76-1.93,1.83,1.83,0,0,0-1.52.84V46.93h-1.47V54Zm-3.18.12a2.61,2.61,0,0,0,2.12-.95l-0.86-.87a1.64,1.64,0,0,1-1.19.55,1.33,1.33,0,0,1-1.32-1.43v0A1.33,1.33,0,0,1,103.35,50a1.51,1.51,0,0,1,1.18.57l0.9-1a2.56,2.56,0,0,0-2.07-.87,2.67,2.67,0,0,0-2.72,2.71v0a2.65,2.65,0,0,0,2.7,2.68M98,54h1.47V48.81H98V54Zm0-5.77h1.55V46.93H97.92v1.31ZM93,51a1.16,1.16,0,0,1,1.12-1.11A1.12,1.12,0,0,1,95.26,51H93Zm1.27,3.12a2.6,2.6,0,0,0,2.12-1l-0.84-.75a1.7,1.7,0,0,1-1.26.54,1.2,1.2,0,0,1-1.27-1h3.61c0-.13,0-0.27,0-0.39a2.53,2.53,0,0,0-2.53-2.82,2.59,2.59,0,0,0-2.57,2.71v0a2.6,2.6,0,0,0,2.71,2.68M87.74,54h1.47V52.09c0-1.24.6-1.83,1.58-1.83h0.08V48.71a1.61,1.61,0,0,0-1.66,1.15v-1H87.74V54Zm-4.88-3A1.16,1.16,0,0,1,84,49.9,1.11,1.11,0,0,1,85.07,51H82.85Zm1.27,3.12a2.6,2.6,0,0,0,2.12-1L85.4,52.4a1.7,1.7,0,0,1-1.26.54,1.21,1.21,0,0,1-1.27-1h3.62c0-.13,0-0.27,0-0.39A2.53,2.53,0,0,0,84,48.71a2.59,2.59,0,0,0-2.57,2.71v0a2.6,2.6,0,0,0,2.71,2.68m-6.38-1.27a1.32,1.32,0,0,1-1.26-1.43v0a1.27,1.27,0,1,1,2.53,0v0a1.32,1.32,0,0,1-1.27,1.43m0.38,1.25a2.43,2.43,0,0,0,2.36-2.68v0a2.44,2.44,0,0,0-2.36-2.68,1.91,1.91,0,0,0-1.62.84V46.93H75V54H76.5V53.33a2,2,0,0,0,1.62.77M68.83,54h1.47v-2.9a0.9,0.9,0,0,1,.92-1.06,0.88,0.88,0,0,1,.89,1.06V54h1.47V50.64a1.71,1.71,0,0,0-1.76-1.93,1.84,1.84,0,0,0-1.52.84V46.93H68.83V54Zm-3.19.12a2.61,2.61,0,0,0,2.12-.95l-0.86-.87a1.65,1.65,0,0,1-1.19.55,1.33,1.33,0,0,1-1.32-1.43v0A1.33,1.33,0,0,1,65.66,50a1.51,1.51,0,0,1,1.18.57l0.9-1a2.56,2.56,0,0,0-2.07-.87,2.67,2.67,0,0,0-2.72,2.71v0a2.65,2.65,0,0,0,2.7,2.68m-6.29-1a0.68,0.68,0,0,1-.8-0.63v0a0.82,0.82,0,0,1,1-.71,2.28,2.28,0,0,1,.94.19v0.26a1,1,0,0,1-1.15.91m-0.45,1a2,2,0,0,0,1.57-.66V54h1.42V51a2.26,2.26,0,0,0-.56-1.66,2.39,2.39,0,0,0-1.75-.58,4.59,4.59,0,0,0-2,.42l0.37,1.12A3.82,3.82,0,0,1,59.38,50a0.93,0.93,0,0,1,1.11.95V51a3.69,3.69,0,0,0-1.27-.21c-1.23,0-2.09.52-2.09,1.65v0a1.61,1.61,0,0,0,1.78,1.59M51.3,54h1.49V51.38H56V50H52.79V48.58h3.67V47.22H51.3V54Z"/><path class="cls-2" d="M53.5,1.72H51.37V0.3h5.8V1.72H55V7.3H53.5V1.72Z"/><path class="cls-2" d="M56.88,4.65v0a2.67,2.67,0,0,1,2.65-2.79,2.61,2.61,0,0,1,2.61,2.91c0,0.12,0,.26,0,0.4H58.39a1.24,1.24,0,0,0,1.31,1A1.76,1.76,0,0,0,61,5.65l0.87,0.77A2.83,2.83,0,0,1,56.88,4.65Zm3.78-.45a1.15,1.15,0,0,0-1.13-1.14A1.19,1.19,0,0,0,58.37,4.2h2.29Z"/><path class="cls-2" d="M63,4.65v0a2.75,2.75,0,0,1,2.81-2.79,2.63,2.63,0,0,1,2.14.9L67,3.74a1.57,1.57,0,0,0-1.22-.59,1.37,1.37,0,0,0-1.3,1.46v0a1.37,1.37,0,0,0,1.36,1.48,1.7,1.7,0,0,0,1.23-.57L68,6.44a2.7,2.7,0,0,1-2.19,1A2.74,2.74,0,0,1,63,4.65Z"/><path class="cls-2" d="M69,0H70.5V2.7a1.9,1.9,0,0,1,1.57-.86,1.76,1.76,0,0,1,1.82,2V7.3H72.37v-3a0.91,0.91,0,0,0-.92-1.09,0.93,0.93,0,0,0-.95,1.09v3H69V0Z"/><path class="cls-2" d="M75.21,1.94h1.52V2.7a1.9,1.9,0,0,1,1.57-.86,1.76,1.76,0,0,1,1.82,2V7.3H78.6v-3a0.91,0.91,0,0,0-.92-1.09,0.93,0.93,0,0,0-.95,1.09v3H75.21V1.94Z"/><path class="cls-2" d="M81.47,0h1.6V1.35h-1.6V0Zm0,1.94H83V7.3H81.51V1.94Z"/><path class="cls-2" d="M84,6.59l0.65-1a3,3,0,0,0,1.69.64c0.44,0,.64-0.16.64-0.4v0c0-.33-0.52-0.44-1.11-0.62a1.75,1.75,0,0,1-1.6-1.61v0a1.75,1.75,0,0,1,2-1.7,3.71,3.71,0,0,1,2,.62l-0.58,1A3.18,3.18,0,0,0,86.24,3c-0.37,0-.56.16-0.56,0.37v0c0,0.3.51,0.44,1.09,0.64,0.75,0.25,1.62.61,1.62,1.59v0c0,1.19-.89,1.73-2,1.73A3.75,3.75,0,0,1,84,6.59Z"/><path class="cls-2" d="M89.22,4.65v0A2.75,2.75,0,0,1,92,1.84a2.63,2.63,0,0,1,2.14.9l-0.93,1A1.57,1.57,0,0,0,92,3.15a1.37,1.37,0,0,0-1.3,1.46v0a1.37,1.37,0,0,0,1.36,1.48,1.7,1.7,0,0,0,1.23-.57l0.89,0.9a2.7,2.7,0,0,1-2.19,1A2.74,2.74,0,0,1,89.22,4.65Z"/><path class="cls-2" d="M95.19,0h1.52V2.7a1.9,1.9,0,0,1,1.57-.86,1.76,1.76,0,0,1,1.82,2V7.3H98.58v-3a0.91,0.91,0,0,0-.92-1.09,0.93,0.93,0,0,0-.95,1.09v3H95.19V0Z"/><path class="cls-2" d="M101.16,4.65v0a2.67,2.67,0,0,1,2.65-2.79,2.61,2.61,0,0,1,2.61,2.91c0,0.12,0,.26,0,0.4h-3.73a1.24,1.24,0,0,0,1.31,1,1.76,1.76,0,0,0,1.3-.55l0.87,0.77A2.83,2.83,0,0,1,101.16,4.65Zm3.78-.45a1.15,1.15,0,0,0-1.13-1.14,1.19,1.19,0,0,0-1.16,1.14h2.29Z"/><path class="cls-2" d="M110.71,0.3h1.54V3.07h2.84V0.3h1.54v7h-1.54V4.49h-2.84V7.3h-1.54v-7Z"/><path class="cls-2" d="M117.89,4.65v0a2.9,2.9,0,0,1,5.8,0v0A2.9,2.9,0,0,1,117.89,4.65Zm4.3,0v0a1.42,1.42,0,0,0-1.41-1.48,1.37,1.37,0,0,0-1.39,1.46v0a1.42,1.42,0,0,0,1.41,1.48A1.37,1.37,0,0,0,122.19,4.65Z"/><path class="cls-2" d="M124.53,4.65v0a2.75,2.75,0,0,1,2.81-2.79,2.63,2.63,0,0,1,2.14.9l-0.93,1a1.57,1.57,0,0,0-1.22-.59A1.37,1.37,0,0,0,126,4.61v0a1.37,1.37,0,0,0,1.36,1.48,1.7,1.7,0,0,0,1.23-.57l0.89,0.9a2.7,2.7,0,0,1-2.19,1A2.74,2.74,0,0,1,124.53,4.65Z"/><path class="cls-2" d="M130.5,0H132V2.7a1.9,1.9,0,0,1,1.57-.86,1.76,1.76,0,0,1,1.82,2V7.3h-1.52v-3A0.91,0.91,0,0,0,133,3.22,0.93,0.93,0,0,0,132,4.31v3H130.5V0Z"/><path class="cls-2" d="M136.31,6.59l0.65-1a3,3,0,0,0,1.69.64c0.44,0,.64-0.16.64-0.4v0c0-.33-0.52-0.44-1.11-0.62a1.75,1.75,0,0,1-1.6-1.61v0a1.75,1.75,0,0,1,2-1.7,3.71,3.71,0,0,1,2,.62l-0.58,1a3.18,3.18,0,0,0-1.45-.5c-0.37,0-.56.16-0.56,0.37v0c0,0.3.51,0.44,1.09,0.64,0.75,0.25,1.62.61,1.62,1.59v0c0,1.19-.89,1.73-2,1.73A3.75,3.75,0,0,1,136.31,6.59Z"/><path class="cls-2" d="M141.49,4.65v0a2.75,2.75,0,0,1,2.81-2.79,2.63,2.63,0,0,1,2.14.9l-0.93,1a1.57,1.57,0,0,0-1.22-.59A1.37,1.37,0,0,0,143,4.61v0a1.37,1.37,0,0,0,1.36,1.48,1.7,1.7,0,0,0,1.23-.57l0.89,0.9a2.7,2.7,0,0,1-2.19,1A2.74,2.74,0,0,1,141.49,4.65Z"/><path class="cls-2" d="M147.46,0H149V2.7a1.9,1.9,0,0,1,1.57-.86,1.76,1.76,0,0,1,1.82,2V7.3h-1.52v-3a0.91,0.91,0,0,0-.92-1.09A0.93,0.93,0,0,0,149,4.31v3h-1.52V0Z"/><path class="cls-2" d="M153.65,5.41V1.94h1.52v3A0.91,0.91,0,0,0,156.09,6,0.93,0.93,0,0,0,157,4.93v-3h1.52V7.3H157V6.54a1.9,1.9,0,0,1-1.57.86A1.76,1.76,0,0,1,153.65,5.41Z"/><path class="cls-2" d="M160,0h1.52V7.3H160V0Z"/><path class="cls-2" d="M162.68,4.65v0a2.67,2.67,0,0,1,2.65-2.79,2.61,2.61,0,0,1,2.61,2.91c0,0.12,0,.26,0,0.4h-3.73a1.24,1.24,0,0,0,1.31,1,1.76,1.76,0,0,0,1.3-.55l0.87,0.77A2.83,2.83,0,0,1,162.68,4.65Zm3.78-.45a1.15,1.15,0,0,0-1.13-1.14,1.19,1.19,0,0,0-1.16,1.14h2.29Z"/><path class="cls-2" d="M51.87,12.3h3.25a2.53,2.53,0,0,1,1.83.62,1.61,1.61,0,0,1,.48,1.19v0a1.63,1.63,0,0,1-.92,1.51,1.71,1.71,0,0,1,1.31,1.72v0c0,1.28-1,1.92-2.62,1.92H51.87v-7Zm4,2.07a0.81,0.81,0,0,0-1-.72H53.37v1.48h1.42c0.68,0,1.11-.22,1.11-0.74v0Zm-0.75,2H53.37v1.54H55.2c0.68,0,1.09-.24,1.09-0.76v0C56.29,16.7,55.94,16.41,55.15,16.41Z"/><path class="cls-2" d="M58.93,13.94h1.52V15a1.66,1.66,0,0,1,1.71-1.18v1.59H62.08c-1,0-1.63.61-1.63,1.89v2H58.93V13.94Z"/><path class="cls-2" d="M62.54,17.76v0c0-1.17.89-1.71,2.16-1.71a3.81,3.81,0,0,1,1.31.22V16.16a1,1,0,0,0-1.15-1,3.94,3.94,0,0,0-1.48.29L63,14.31a4.73,4.73,0,0,1,2.08-.43,2.47,2.47,0,0,1,1.81.6,2.33,2.33,0,0,1,.58,1.71V19.3H66V18.72a2.06,2.06,0,0,1-1.62.68A1.66,1.66,0,0,1,62.54,17.76ZM66,17.41V17.14a2.35,2.35,0,0,0-1-.2,0.85,0.85,0,0,0-1,.74v0a0.71,0.71,0,0,0,.83.65A1,1,0,0,0,66,17.41Z"/><path class="cls-2" d="M68.78,13.94H70.3V14.7a1.9,1.9,0,0,1,1.57-.86,1.76,1.76,0,0,1,1.82,2V19.3H72.17v-3a0.91,0.91,0,0,0-.92-1.09,0.93,0.93,0,0,0-.95,1.09v3H68.78V13.94Z"/><path class="cls-2" d="M74.77,16.63v0a2.51,2.51,0,0,1,2.44-2.77,2.06,2.06,0,0,1,1.67.8V12H80.4v7.3H78.88V18.53a2,2,0,0,1-1.67.87A2.52,2.52,0,0,1,74.77,16.63Zm4.13,0v0a1.31,1.31,0,1,0-2.61,0v0A1.31,1.31,0,1,0,78.9,16.63Z"/><path class="cls-2" d="M81.5,16.65v0a2.67,2.67,0,0,1,2.65-2.79,2.61,2.61,0,0,1,2.61,2.91c0,0.12,0,.26,0,0.4H83a1.24,1.24,0,0,0,1.31,1,1.75,1.75,0,0,0,1.3-.55l0.87,0.77A2.83,2.83,0,0,1,81.5,16.65Zm3.78-.45a1.15,1.15,0,0,0-1.13-1.14A1.19,1.19,0,0,0,83,16.2h2.29Z"/><path class="cls-2" d="M87.89,13.94h1.52V14.7A1.9,1.9,0,0,1,91,13.84a1.76,1.76,0,0,1,1.82,2V19.3H91.28v-3a0.91,0.91,0,0,0-.92-1.09,0.93,0.93,0,0,0-.95,1.09v3H87.89V13.94Z"/><path class="cls-2" d="M95.64,18.6v0.7H94.12V12h1.52v2.71a2,2,0,0,1,1.67-.87,2.52,2.52,0,0,1,2.44,2.77v0a2.51,2.51,0,0,1-2.44,2.77A2.06,2.06,0,0,1,95.64,18.6Zm2.59-2v0a1.31,1.31,0,1,0-2.61,0v0A1.31,1.31,0,1,0,98.23,16.63Z"/><path class="cls-2" d="M100.83,17.41V13.94h1.52v3a0.91,0.91,0,0,0,.92,1.09,0.93,0.93,0,0,0,.95-1.09v-3h1.52V19.3h-1.52V18.54a1.9,1.9,0,0,1-1.57.86A1.76,1.76,0,0,1,100.83,17.41Z"/><path class="cls-2" d="M107.1,13.94h1.52V15a1.65,1.65,0,0,1,1.71-1.18v1.59h-0.08c-1,0-1.63.61-1.63,1.89v2H107.1V13.94Z"/><path class="cls-2" d="M111.21,20.36l0.52-1.14a3.5,3.5,0,0,0,1.81.49,1.32,1.32,0,0,0,1.53-1.46V18a2.09,2.09,0,0,1-1.75.87,2.35,2.35,0,0,1-2.38-2.5v0a2.36,2.36,0,0,1,2.38-2.5,2.17,2.17,0,0,1,1.73.8v-0.7h1.52v4.15a2.87,2.87,0,0,1-.68,2.11,3.14,3.14,0,0,1-2.31.72A5.09,5.09,0,0,1,111.21,20.36Zm3.86-4v0a1.31,1.31,0,0,0-2.61,0v0a1.22,1.22,0,0,0,1.3,1.24A1.24,1.24,0,0,0,115.07,16.36Z"/><path class="cls-2" d="M51.85,27.73V24h0.73v3.74a1.92,1.92,0,0,0,2,2.19,1.87,1.87,0,0,0,2-2.15V24h0.73v3.73A2.71,2.71,0,1,1,51.85,27.73Z"/><path class="cls-2" d="M58.89,25.65h0.72v0.84a1.82,1.82,0,0,1,1.64-.94,1.75,1.75,0,0,1,1.84,1.92v3H62.38V27.65A1.28,1.28,0,0,0,61,26.2a1.41,1.41,0,0,0-1.44,1.51v2.75H58.89v-4.8Z"/><path class="cls-2" d="M64.64,23.81h0.82V24.6H64.64V23.81Zm0,1.84H65.4v4.8H64.69v-4.8Z"/><path class="cls-2" d="M66.59,25.65h0.79l1.62,4,1.63-4H71.4l-2.09,4.84H68.67Z"/><path class="cls-2" d="M71.95,28.07v0a2.37,2.37,0,0,1,2.3-2.5,2.29,2.29,0,0,1,2.24,2.54,1.9,1.9,0,0,1,0,.23H72.67a1.68,1.68,0,0,0,1.69,1.62,2,2,0,0,0,1.51-.68l0.45,0.4a2.48,2.48,0,0,1-2,.9A2.39,2.39,0,0,1,71.95,28.07Zm3.82-.28a1.58,1.58,0,0,0-1.53-1.63,1.66,1.66,0,0,0-1.56,1.63h3.09Z"/><path class="cls-2" d="M77.75,25.65h0.72v1.25a2.06,2.06,0,0,1,2-1.34v0.77H80.37a1.94,1.94,0,0,0-1.9,2.2v1.91H77.75v-4.8Z"/><path class="cls-2" d="M81.12,29.84l0.36-.51a2.8,2.8,0,0,0,1.66.61,0.86,0.86,0,0,0,1-.76v0c0-.48-0.57-0.67-1.2-0.85s-1.59-.47-1.59-1.36v0A1.45,1.45,0,0,1,83,25.57a3.28,3.28,0,0,1,1.73.53l-0.33.54A2.72,2.72,0,0,0,83,26.17a0.8,0.8,0,0,0-.93.7v0c0,0.46.59,0.63,1.24,0.83s1.54,0.51,1.54,1.37v0a1.51,1.51,0,0,1-1.71,1.44A3.31,3.31,0,0,1,81.12,29.84Z"/><path class="cls-2" d="M86.17,23.81H87V24.6H86.17V23.81Zm0,1.84h0.72v4.8H86.22v-4.8Z"/><path class="cls-2" d="M88.85,29.18v-2.9H88.18V25.65h0.67V24.2h0.72v1.45h1.52v0.63H89.56v2.81a0.71,0.71,0,0,0,.81.8,1.5,1.5,0,0,0,.7-0.17v0.61a1.79,1.79,0,0,1-.86.21A1.22,1.22,0,0,1,88.85,29.18Z"/><path class="cls-2" d="M95.95,25.65h0.76l-2,5A1.68,1.68,0,0,1,93.1,32a2.18,2.18,0,0,1-1-.24l0.24-.57a1.5,1.5,0,0,0,.75.18,1.08,1.08,0,0,0,1-.9l-2.18-4.79h0.79l1.75,4Z"/><path class="cls-2" d="M100.34,28.08v0a2.5,2.5,0,0,1,5,0v0a2.49,2.49,0,0,1-2.52,2.51A2.46,2.46,0,0,1,100.34,28.08Zm4.27,0v0a1.82,1.82,0,0,0-1.78-1.88A1.77,1.77,0,0,0,101.08,28v0a1.8,1.8,0,0,0,1.77,1.87A1.77,1.77,0,0,0,104.62,28.08Z"/><path class="cls-2" d="M106.92,26.28h-0.66V25.66h0.66V25.24a1.7,1.7,0,0,1,.42-1.24,1.42,1.42,0,0,1,1-.37,2.16,2.16,0,0,1,.79.12v0.62a2.39,2.39,0,0,0-.7-0.12,0.83,0.83,0,0,0-.84,1v0.39h1.52v0.61h-1.51v4.17h-0.72V26.28Z"/><path class="cls-2" d="M54.36,35.06H55l3,6.55H57.22L56.46,39.9H52.92l-0.77,1.72H51.4Zm1.81,4.16L54.7,35.92l-1.49,3.31h3Z"/><path class="cls-2" d="M59.18,36.81H59.9v1a2.16,2.16,0,0,1,1.84-1.07A2.34,2.34,0,0,1,64,39.2v0a2.35,2.35,0,0,1-2.3,2.5,2.17,2.17,0,0,1-1.84-1V43.1H59.18V36.81Zm4.12,2.42v0a1.73,1.73,0,0,0-1.69-1.86,1.79,1.79,0,0,0-1.74,1.85v0a1.79,1.79,0,0,0,1.74,1.86A1.7,1.7,0,0,0,63.3,39.23Z"/><path class="cls-2" d="M65.36,36.81h0.72v1a2.16,2.16,0,0,1,1.84-1.07,2.34,2.34,0,0,1,2.3,2.49v0a2.35,2.35,0,0,1-2.3,2.5,2.17,2.17,0,0,1-1.84-1V43.1H65.36V36.81Zm4.12,2.42v0a1.73,1.73,0,0,0-1.69-1.86A1.79,1.79,0,0,0,66,39.2v0a1.79,1.79,0,0,0,1.74,1.86A1.7,1.7,0,0,0,69.47,39.23Z"/><path class="cls-2" d="M71.6,34.83h0.72v6.78H71.6V34.83Z"/><path class="cls-2" d="M74,35h0.82v0.79H74V35Zm0,1.84h0.72v4.8H74v-4.8Z"/><path class="cls-2" d="M76.12,39.23v0a2.37,2.37,0,0,1,2.3-2.5,2.29,2.29,0,0,1,2.24,2.54,1.88,1.88,0,0,1,0,.23H76.85a1.68,1.68,0,0,0,1.69,1.63,2,2,0,0,0,1.51-.68l0.45,0.4a2.48,2.48,0,0,1-2,.9A2.39,2.39,0,0,1,76.12,39.23Zm3.82-.28a1.58,1.58,0,0,0-1.53-1.63,1.66,1.66,0,0,0-1.56,1.63h3.09Z"/><path class="cls-2" d="M81.65,39.23v0a2.36,2.36,0,0,1,2.29-2.5,2.17,2.17,0,0,1,1.84,1v-2.9H86.5v6.78H85.78v-1a2.16,2.16,0,0,1-1.84,1.07A2.34,2.34,0,0,1,81.65,39.23Zm4.16,0v0a1.79,1.79,0,0,0-1.74-1.85,1.7,1.7,0,0,0-1.69,1.85v0a1.74,1.74,0,0,0,1.69,1.86A1.79,1.79,0,0,0,85.81,39.22Z"/><path class="cls-2" d="M90.59,40.67L91,40.13a3.1,3.1,0,0,0,2.23.92,1.25,1.25,0,0,0,1.45-1.11v0c0-.6-0.33-0.95-1.69-1.24s-2.18-.81-2.18-1.88v0A1.92,1.92,0,0,1,93,35a3.39,3.39,0,0,1,2.29.8l-0.43.57A2.86,2.86,0,0,0,93,35.68a1.2,1.2,0,0,0-1.38,1v0c0,0.61.33,1,1.77,1.26s2.12,0.85,2.12,1.84v0a2,2,0,0,1-2.22,1.84A3.81,3.81,0,0,1,90.59,40.67Z"/><path class="cls-2" d="M96.55,39.24v0a2.5,2.5,0,0,1,4.39-1.65l-0.47.5A1.94,1.94,0,0,0,99,37.34a1.77,1.77,0,0,0-1.72,1.86v0A1.8,1.8,0,0,0,99,41.09a2,2,0,0,0,1.47-.72L101,40.8A2.49,2.49,0,0,1,96.55,39.24Z"/><path class="cls-2" d="M102.17,35H103v0.79h-0.82V35Zm0,1.84h0.72v4.8h-0.72v-4.8Z"/><path class="cls-2" d="M104.3,39.23v0a2.37,2.37,0,0,1,2.3-2.5,2.29,2.29,0,0,1,2.24,2.54,1.88,1.88,0,0,1,0,.23H105a1.68,1.68,0,0,0,1.69,1.63,2,2,0,0,0,1.51-.68l0.45,0.4a2.48,2.48,0,0,1-2,.9A2.39,2.39,0,0,1,104.3,39.23Zm3.82-.28a1.58,1.58,0,0,0-1.53-1.63A1.66,1.66,0,0,0,105,38.95h3.09Z"/><path class="cls-2" d="M110.11,36.81h0.72v0.84a1.82,1.82,0,0,1,1.65-.94,1.75,1.75,0,0,1,1.84,1.92v3h-0.72V38.81a1.28,1.28,0,0,0-1.33-1.45,1.41,1.41,0,0,0-1.44,1.5v2.75h-0.72v-4.8Z"/><path class="cls-2" d="M115.54,39.24v0a2.5,2.5,0,0,1,4.39-1.65l-0.47.5a1.94,1.94,0,0,0-1.46-.72,1.77,1.77,0,0,0-1.72,1.86v0A1.8,1.8,0,0,0,118,41.09a2,2,0,0,0,1.47-.72L120,40.8A2.49,2.49,0,0,1,115.54,39.24Z"/><path class="cls-2" d="M120.71,39.23v0a2.37,2.37,0,0,1,2.3-2.5,2.29,2.29,0,0,1,2.24,2.54,1.86,1.86,0,0,1,0,.23h-3.81a1.68,1.68,0,0,0,1.69,1.63,2,2,0,0,0,1.51-.68l0.45,0.4a2.48,2.48,0,0,1-2,.9A2.39,2.39,0,0,1,120.71,39.23Zm3.82-.28A1.58,1.58,0,0,0,123,37.31a1.66,1.66,0,0,0-1.56,1.63h3.09Z"/><path class="cls-2" d="M126.11,41l0.36-.51a2.8,2.8,0,0,0,1.66.61,0.86,0.86,0,0,0,1-.76v0c0-.48-0.57-0.67-1.2-0.85s-1.59-.47-1.59-1.36v0A1.45,1.45,0,0,1,128,36.73a3.29,3.29,0,0,1,1.73.53l-0.33.54a2.72,2.72,0,0,0-1.42-.46,0.8,0.8,0,0,0-.93.7v0c0,0.46.59,0.63,1.24,0.83s1.54,0.51,1.54,1.37v0a1.51,1.51,0,0,1-1.71,1.44A3.31,3.31,0,0,1,126.11,41Z"/></svg>